<svg width="142" height="40" viewBox="0 0 142 40" fill="none" xmlns="http://www.w3.org/2000/svg">
<g clip-path="url(#clip0_121_5252)">
<path d="M8.74456 14.0064C8.11848 14.0103 7.49821 13.8873 6.92182 13.6449C6.68889 13.5464 6.46481 13.4285 6.25197 13.2925V30.4618H11.2918V13.297C10.5301 13.7734 9.64506 14.0198 8.74456 14.0064Z" fill="white"/>
<path d="M141.991 26.5221C139.161 30.4936 134.755 31.9711 130.439 30.5885C126.261 29.2646 123.631 25.528 123.659 20.9466C123.682 16.5413 126.306 12.8905 130.298 11.657C135.511 10.044 140.095 12.9538 141.918 18.0639C142.246 18.9676 141.526 19.0715 141.007 19.2884C137.566 20.7116 134.121 22.1123 130.676 23.5265C130.17 23.7343 129.669 23.9783 129.163 24.1816C131.096 27.7465 134.677 27.7601 138.541 24.2268L141.991 26.5221ZM136.655 17.1693C136.107 16.3711 135.292 15.7903 134.354 15.5291C133.416 15.2679 132.416 15.3432 131.528 15.7415C130.558 16.1024 129.733 16.7667 129.177 17.6341C128.621 18.5014 128.365 19.5246 128.448 20.5489L136.655 17.1693Z" fill="white"/>
<path d="M18.0906 14.2685H18.3959C18.9788 13.331 19.8009 12.5626 20.7792 12.041C21.8284 11.4809 23.0053 11.1977 24.1968 11.2187C25.2612 11.1988 26.3186 11.394 27.3045 11.7925C28.1635 12.1445 28.9223 12.6999 29.5146 13.41C30.113 14.1539 30.5575 15.0076 30.8224 15.9222C31.1312 16.9807 31.2847 18.0779 31.2781 19.1798V30.4754H26.2656V19.7898C26.2656 18.4433 25.9618 17.4463 25.3542 16.7987C25.009 16.4545 24.593 16.1884 24.1345 16.0184C23.6759 15.8484 23.1858 15.7786 22.6976 15.8137C22.0608 15.8055 21.4328 15.9612 20.8749 16.2655C20.3389 16.5565 19.8726 16.9588 19.5078 17.4448C19.1269 17.9741 18.8473 18.5684 18.683 19.1979C18.4881 19.8983 18.3915 20.622 18.3959 21.3486V30.489H13.3834V11.8286H18.0906V14.2685Z" fill="white"/>
<path d="M52.0937 25.7538C51.2921 27.306 50.1108 28.6342 48.6579 29.6169C47.0193 30.6677 45.0942 31.193 43.1441 31.1215C41.7714 31.1372 40.4089 30.8855 39.1341 30.3805C37.956 29.8984 36.8893 29.1836 35.999 28.2795C35.1054 27.3702 34.4009 26.2955 33.9256 25.1167C33.417 23.8509 33.1631 22.4986 33.1783 21.1361C33.1627 19.7797 33.4103 18.4329 33.9074 17.1691C34.3733 15.9943 35.0776 14.9269 35.9767 14.0331C36.8758 13.1393 37.9505 12.4382 39.1341 11.9731C40.4081 11.4648 41.7709 11.2114 43.1441 11.2276C45.0852 11.1625 47.0008 11.6807 48.6396 12.7141C50.0799 13.6554 51.2133 14.9912 51.9023 16.5592L47.2954 18.4659C46.923 17.6768 46.3458 17.0001 45.623 16.5049C44.8595 16.0267 43.9692 15.786 43.0666 15.8137C42.4211 15.8098 41.7817 15.939 41.1892 16.1932C40.6087 16.4507 40.0841 16.8174 39.6444 17.273C39.1833 17.7566 38.8239 18.3265 38.5873 18.9493C38.0768 20.3788 38.0768 21.9387 38.5873 23.3682C38.8229 23.9915 39.1824 24.5615 39.6444 25.0444C40.0881 25.498 40.6177 25.8604 41.2029 26.1107C41.7954 26.3649 42.4347 26.4941 43.0803 26.4903C44.0209 26.5203 44.9496 26.2752 45.7506 25.7854C46.5121 25.279 47.1176 24.5738 47.5004 23.7477L52.0937 25.7538Z" fill="white"/>
<path d="M67.0128 28.0536H66.7075C66.1196 28.9847 65.2985 29.749 64.3242 30.2721C63.2746 30.8306 62.0977 31.1122 60.9066 31.0899C58.5249 31.0899 56.7523 30.3655 55.5888 28.9166C54.4253 27.4678 53.842 25.5385 53.839 23.1287V11.8331H58.8515V22.5323C58.8515 23.8878 59.1522 24.8728 59.7629 25.5189C60.1108 25.8611 60.529 26.125 60.989 26.2926C61.449 26.4602 61.94 26.5276 62.4286 26.4903C63.0656 26.5002 63.694 26.3444 64.2513 26.0385C64.7875 25.7478 65.2539 25.3455 65.6184 24.8592C66.0041 24.3303 66.2898 23.7363 66.4614 23.1061C66.6582 22.406 66.7563 21.6823 66.753 20.9555V11.8286H71.7656V30.489H67.0128V28.0536Z" fill="white"/>
<path d="M74.1351 6.11768H79.1476V14.0743C79.672 13.2256 80.4142 12.5302 81.2984 12.0592C82.4047 11.4658 83.6505 11.1757 84.9075 11.2188C86.0953 11.2158 87.2695 11.4702 88.3479 11.9643C89.4387 12.4516 90.4232 13.1453 91.246 14.0065C92.1025 14.9261 92.7738 15.9997 93.2237 17.1693C94.1956 19.748 94.1956 22.5879 93.2237 25.1666C92.7749 26.3368 92.1035 27.4105 91.246 28.3294C90.4287 29.1935 89.4508 29.8931 88.3661 30.3897C87.2869 30.8807 86.1131 31.1335 84.9257 31.1307C83.6673 31.1658 82.422 30.8696 81.3167 30.2722C80.433 29.7983 79.6911 29.1017 79.1658 28.2525H78.856V30.5117H74.1351V6.11768ZM83.8867 26.4904C84.541 26.4934 85.1891 26.3643 85.7915 26.1109C86.3871 25.8601 86.9286 25.4981 87.3864 25.0446C87.8627 24.5623 88.2402 23.993 88.4982 23.3683C89.0633 21.9487 89.0633 20.3691 88.4982 18.9495C88.2391 18.3254 87.8617 17.7563 87.3864 17.2732C86.9274 16.8212 86.3862 16.4594 85.7915 16.2069C85.1891 15.9535 84.541 15.8244 83.8867 15.8274C83.2358 15.8258 82.5907 15.9486 81.9865 16.1888C81.3908 16.4287 80.8499 16.7853 80.3962 17.2371C79.9202 17.7188 79.5441 18.2883 79.2889 18.9133C78.724 20.358 78.724 21.9598 79.2889 23.4045C79.5456 24.0309 79.9251 24.6006 80.4053 25.0807C80.8578 25.534 81.399 25.8907 81.9956 26.129C82.5963 26.3702 83.2387 26.493 83.8867 26.4904Z" fill="white"/>
<path d="M122.41 25.8805C122.184 26.0321 121.939 26.1536 121.681 26.2419C121.345 26.3436 120.994 26.3894 120.642 26.3775C120.355 26.3955 120.068 26.3487 119.802 26.2407C119.536 26.1327 119.298 25.9663 119.106 25.754C118.848 25.4861 118.668 25.1533 118.587 24.7916C118.497 24.3851 118.452 23.9698 118.455 23.5536V16.094H123.062V11.8287H118.478V6.11768H113.465V11.8287H107.815L103.258 23.1243H102.989L98.2271 11.8287H92.449L100.36 29.5764L96.1719 38.7168H101.59L111.51 16.094H113.424V24.4527C113.424 26.6034 114.032 28.2601 115.247 29.4228C115.774 29.9573 116.409 30.376 117.111 30.6517C117.926 30.9621 118.794 31.1154 119.667 31.1036C120.421 31.1082 121.173 31.0385 121.913 30.8957C122.576 30.7638 123.22 30.5545 123.832 30.2722L122.41 25.8805Z" fill="white"/>
<path d="M8.52127 11.6618C7.537 10.3831 4.52949 5.66156 9.95668 1.26983C10.0483 1.19333 10.1665 1.15566 10.2859 1.16496C10.4053 1.17426 10.5162 1.22979 10.5946 1.31953C11.6792 2.58464 15.1241 7.38301 9.15467 11.7115C9.06335 11.7866 8.94608 11.8234 8.8278 11.8141C8.70951 11.8049 8.59955 11.7502 8.52127 11.6618Z" fill="#C9DE7A"/>
<path d="M9.51923 11.8784L9.35063 12.0049C9.18559 12.1242 8.9803 12.1753 8.778 12.1475C8.5757 12.1197 8.39218 12.0151 8.2661 11.8558C7.19069 10.4642 4.1285 5.57548 9.75163 1.01206C9.90882 0.882448 10.1111 0.819285 10.3148 0.836189C10.5186 0.853093 10.7074 0.948711 10.8407 1.10242C11.547 1.92474 13.1647 4.12965 12.8548 6.78185C12.6361 8.66596 11.5151 10.3919 9.51923 11.8784ZM10.1663 1.52262C4.99429 5.70199 7.8013 10.1886 8.79925 11.4628C8.81113 11.4748 8.82531 11.4843 8.84096 11.4908C8.85661 11.4974 8.87341 11.5007 8.89039 11.5007C8.90736 11.5007 8.92417 11.4974 8.93981 11.4908C8.95546 11.4843 8.96964 11.4748 8.98152 11.4628C10.9318 10.0395 12.0255 8.44005 12.2305 6.70504C12.5085 4.30586 11.0184 2.27717 10.3668 1.51358C10.3534 1.50045 10.3374 1.49022 10.3198 1.48352C10.3022 1.47682 10.2834 1.47379 10.2646 1.47464C10.2457 1.47549 10.2273 1.48019 10.2104 1.48845C10.1935 1.4967 10.1785 1.50834 10.1663 1.52262Z" fill="#0E3252"/>
<path d="M8.53038 11.7476C6.48436 11.4991 -0.496702 9.94028 0.405551 1.15681C0.418313 1.00645 0.490755 0.867267 0.606959 0.769838C0.723163 0.672409 0.873624 0.624707 1.02528 0.637214C3.14421 0.804389 10.5946 2.04691 9.17289 11.2777C9.14715 11.4228 9.06606 11.5526 8.94645 11.6401C8.82683 11.7276 8.67785 11.766 8.53038 11.7476Z" fill="#5CC5D5"/>
<path d="M9.141 11.9102C9.04889 11.9813 8.94343 12.0335 8.83077 12.0637C8.71811 12.094 8.60051 12.1017 8.48481 12.0864C6.27931 11.7927 -0.847578 10.1436 0.0820156 1.12515C0.106267 0.892623 0.220455 0.678463 0.400594 0.527653C0.580733 0.376843 0.812805 0.301118 1.04806 0.316384C2.42423 0.424821 5.84185 0.957974 7.94711 3.6147C9.46909 5.51688 9.98857 8.13294 9.49187 11.3499C9.45027 11.5738 9.32496 11.7739 9.141 11.9102ZM8.57139 11.4584C8.63844 11.466 8.70581 11.447 8.75876 11.4055C8.81171 11.364 8.84592 11.3034 8.85392 11.237C9.3096 8.19168 8.85392 5.75635 7.43674 4.00779C5.49097 1.5589 2.27841 1.05738 0.997939 0.957974C0.965008 0.955512 0.931911 0.959528 0.900551 0.969791C0.869191 0.980053 0.840185 0.99636 0.815201 1.01777C0.790217 1.03919 0.769747 1.06528 0.754969 1.09457C0.74019 1.12385 0.731394 1.15574 0.729086 1.1884C-0.141269 9.633 6.5117 11.1782 8.57139 11.4493V11.4584Z" fill="#0E3252"/>
<path d="M2.24142 2.40248L1.72241 2.78564L8.46867 11.7696L8.98768 11.3865L2.24142 2.40248Z" fill="#0E3252"/>
<path d="M9.61035 9.56518L9.05898 9.47933L9.71516 4.54541L10.2711 4.63126L9.61035 9.56518Z" fill="#0E3252"/>
</g>
<defs>
<clipPath id="clip0_121_5252">
<rect width="142" height="40" fill="white"/>
</clipPath>
</defs>
</svg>
