<svg id="Layer_1" data-name="Layer 1" xmlns="http://www.w3.org/2000/svg" viewBox="0 0 311.62 88.53"><defs><style>.cls-1{fill:#fff;}.cls-2{fill:#c9de7a;}.cls-3{fill:#0e3252;}.cls-4{fill:#5cc5d5;}</style></defs><title>White logo</title><path class="cls-1" d="M19.19,31a10.08,10.08,0,0,1-4-.8,9.83,9.83,0,0,1-1.47-.78v38H24.78V29.43A10.19,10.19,0,0,1,19.19,31Z"/><path class="cls-1" d="M311.6,58.7c-6.21,8.79-15.88,12.06-25.35,9-9.17-2.93-14.94-11.2-14.88-21.34.05-9.75,5.81-17.83,14.57-20.56,11.44-3.57,21.5,2.87,25.5,14.18.72,2-.86,2.23-2,2.71-7.55,3.15-15.11,6.25-22.67,9.38-1.11.46-2.21,1-3.32,1.45,4.24,7.89,12.1,7.92,20.58.1ZM299.89,38a9.08,9.08,0,0,0-11.25-3.16,10.47,10.47,0,0,0-6.76,10.64Z"/><path class="cls-1" d="M39.7,31.58h.67a13.85,13.85,0,0,1,5.23-4.93,15.25,15.25,0,0,1,7.5-1.82,17.21,17.21,0,0,1,6.82,1.27,12.48,12.48,0,0,1,4.85,3.58,16,16,0,0,1,2.87,5.56,25.41,25.41,0,0,1,1,7.21v25h-11V43.8q0-4.47-2-6.62A7.46,7.46,0,0,0,49.81,35a8.08,8.08,0,0,0-4,1,9.32,9.32,0,0,0-3,2.61A11.75,11.75,0,0,0,41,42.49a17.49,17.49,0,0,0-.63,4.76V67.48h-11V26.18H39.7Z"/><path class="cls-1" d="M114.32,57a23.09,23.09,0,0,1-7.54,8.55,20.86,20.86,0,0,1-12.1,3.33,23,23,0,0,1-8.8-1.64A20.6,20.6,0,0,1,79,62.59a21.43,21.43,0,0,1-4.55-7,23.11,23.11,0,0,1-1.64-8.81A23.43,23.43,0,0,1,74.41,38a20.4,20.4,0,0,1,11.47-11.5,22.84,22.84,0,0,1,8.8-1.65,21.14,21.14,0,0,1,12.06,3.29,19.54,19.54,0,0,1,7.16,8.51l-10.11,4.22a10.88,10.88,0,0,0-3.67-4.34A9.93,9.93,0,0,0,94.51,35a10.22,10.22,0,0,0-4.12.84A10.79,10.79,0,0,0,87,38.23a11.09,11.09,0,0,0-2.32,3.71,14.65,14.65,0,0,0,0,9.78A11,11,0,0,0,87,55.43a10.63,10.63,0,0,0,3.42,2.36,10.22,10.22,0,0,0,4.12.84,10.52,10.52,0,0,0,5.86-1.56,10.92,10.92,0,0,0,3.84-4.51Z"/><path class="cls-1" d="M147.06,62.09h-.67A14.08,14.08,0,0,1,141.16,67a15.25,15.25,0,0,1-7.5,1.81q-7.84,0-11.67-4.81t-3.84-12.81v-25h11V49.87c0,3,.66,5.18,2,6.61A7.49,7.49,0,0,0,137,58.63a8,8,0,0,0,4-1,9.29,9.29,0,0,0,3-2.61,11.93,11.93,0,0,0,1.85-3.88,17.44,17.44,0,0,0,.64-4.76V26.18h11v41.3H147.06Z"/><path class="cls-1" d="M162.69,13.54h11V31.15h0a12.44,12.44,0,0,1,4.72-4.46,15.52,15.52,0,0,1,7.92-1.86,17.89,17.89,0,0,1,7.55,1.65A20.18,20.18,0,0,1,200.24,31,21.73,21.73,0,0,1,204.58,38a25.28,25.28,0,0,1,0,17.7,21.62,21.62,0,0,1-4.34,7,20.37,20.37,0,0,1-6.32,4.56,18,18,0,0,1-7.55,1.64A15.63,15.63,0,0,1,178.45,67a12.53,12.53,0,0,1-4.72-4.47h-.68v5H162.69Zm21.4,45.09a10.58,10.58,0,0,0,4.18-.84,11.08,11.08,0,0,0,3.5-2.36,11.57,11.57,0,0,0,2.44-3.71,13.32,13.32,0,0,0,0-9.78,11.68,11.68,0,0,0-2.44-3.71,11.25,11.25,0,0,0-3.5-2.36,10.58,10.58,0,0,0-4.18-.84,11.13,11.13,0,0,0-4.17.8,10.5,10.5,0,0,0-3.49,2.32A11.43,11.43,0,0,0,174,41.86a13.75,13.75,0,0,0,0,9.94,11.32,11.32,0,0,0,2.45,3.71,10.35,10.35,0,0,0,3.49,2.32A10.94,10.94,0,0,0,184.09,58.63Z"/><path class="cls-1" d="M268.63,57.28a6.84,6.84,0,0,1-1.6.8,7,7,0,0,1-2.28.3A4.17,4.17,0,0,1,261.38,57a4.5,4.5,0,0,1-1.14-2.13,12.38,12.38,0,0,1-.29-2.74V35.62h10.11V26.18H260V13.54h-11V26.18h-12.4l-10,25h-.59l-10.45-25H202.88l17.36,39.28-9.19,20.23h11.89l21.77-50.07h4.2v18.5q0,7.14,4,11A11.82,11.82,0,0,0,257,67.84a15.08,15.08,0,0,0,5.61,1,25,25,0,0,0,4.93-.46A18.75,18.75,0,0,0,271.75,67Z"/><path class="cls-2" d="M18.7,25.81c-2.16-2.83-8.76-13.28,3.15-23a1,1,0,0,1,1.4.11c2.38,2.8,9.94,13.42-3.16,23A1,1,0,0,1,18.7,25.81Z"/><path class="cls-3" d="M20.89,26.29l-.37.28a1.73,1.73,0,0,1-2.38-.33c-2.36-3.08-9.08-13.9,3.26-24a1.71,1.71,0,0,1,2.39.2c1.55,1.82,5.1,6.7,4.42,12.57C27.73,19.18,25.27,23,20.89,26.29ZM22.31,3.37h0c-11.35,9.25-5.19,19.18-3,22h0a.28.28,0,0,0,.4,0c4.28-3.15,6.68-6.69,7.13-10.53.61-5.31-2.66-9.8-4.09-11.49A.3.3,0,0,0,22.31,3.37Z"/><path class="cls-4" d="M18.72,26C14.23,25.45-1.09,22,.89,2.56A1.26,1.26,0,0,1,2.25,1.41c4.65.37,21,3.12,17.88,23.55A1.27,1.27,0,0,1,18.72,26Z"/><path class="cls-3" d="M20.06,26.36a1.93,1.93,0,0,1-1.44.39h0C13.78,26.1-1.86,22.45.18,2.49A2,2,0,0,1,2.3.7C5.32.94,12.82,2.12,17.44,8c3.34,4.21,4.48,10,3.39,17.12A2,2,0,0,1,20.06,26.36Zm-1.25-1a.56.56,0,0,0,.62-.49c1-6.74,0-12.13-3.11-16C12.05,3.45,5,2.34,2.19,2.12a.55.55,0,0,0-.59.51C-.31,21.32,14.29,24.74,18.81,25.34Z"/><line class="cls-4" x1="19.16" y1="25.63" x2="4.36" y2="5.74"/><rect class="cls-3" x="11.04" y="3.29" width="1.42" height="24.79" transform="translate(-7.04 10.12) rotate(-36.67)"/><line class="cls-4" x1="20.49" y1="21.08" x2="21.93" y2="10.16"/><polygon class="cls-3" points="21.09 21.17 19.88 20.98 21.32 10.06 22.54 10.25 21.09 21.17"/></svg>