<svg version="1.1" xmlns="http://www.w3.org/2000/svg" viewBox="0 0 769.4347239506751 425.3326700590772" width="769.4347239506751" height="425.3326700590772">
  <!-- svg-source:excalidraw -->
  
  <defs>
    <style class="style-fonts">
      @font-face {
        font-family: "Virgil";
        src: url("https://excalidraw.com/Virgil.woff2");
      }
      @font-face {
        font-family: "Cascadia";
        src: url("https://excalidraw.com/Cascadia.woff2");
      }
    </style>
    
  </defs>
  <rect x="0" y="0" width="769.4347239506751" height="425.3326700590772" fill="#ffffff"></rect><g stroke-opacity="0.7" fill-opacity="0.7" transform="translate(10 10.677755668635882) rotate(0 11.807998657226562 22.5)"><text x="0" y="0" font-family="Virgil, Segoe UI Emoji" font-size="36px" fill="#846358" text-anchor="start" style="white-space: pre;" direction="ltr" dominant-baseline="text-before-edge">A</text></g><g stroke-linecap="round"><g stroke-opacity="0.7" fill-opacity="0.7" transform="translate(44.464899441047834 34.52256388580486) rotate(0 93.06073881314204 -0.1558463487636459)"><path d="M-0.96 -0.88 C30.21 -1.03, 155.65 -1.59, 187.08 -1.59 M0.74 1.27 C31.71 1.37, 154.88 0.56, 185.89 -0.15" stroke="#846358" stroke-width="1" fill="none"></path></g><g stroke-opacity="0.7" fill-opacity="0.7" transform="translate(44.464899441047834 34.52256388580486) rotate(0 93.06073881314204 -0.1558463487636459)"><path d="M156.37 9.73 C166.13 7.55, 175.81 5.77, 185.17 -1.22 M157.67 9.91 C166.83 7.7, 176.72 2.7, 185.34 0.22" stroke="#846358" stroke-width="1" fill="none"></path></g><g stroke-opacity="0.7" fill-opacity="0.7" transform="translate(44.464899441047834 34.52256388580486) rotate(0 93.06073881314204 -0.1558463487636459)"><path d="M156.1 -10.79 C165.82 -6.71, 175.58 -2.24, 185.17 -1.22 M157.4 -10.61 C166.64 -5.95, 176.61 -4.08, 185.34 0.22" stroke="#846358" stroke-width="1" fill="none"></path></g></g><mask></mask><g stroke-opacity="0.7" fill-opacity="0.7" transform="translate(236.04919339275443 13.041020538915859) rotate(0 13.08599853515625 22.5)"><text x="0" y="0" font-family="Virgil, Segoe UI Emoji" font-size="36px" fill="#f08c00" text-anchor="start" style="white-space: pre;" direction="ltr" dominant-baseline="text-before-edge">B</text></g><g stroke-linecap="round"><g stroke-opacity="0.7" fill-opacity="0.7" transform="translate(261.9231095885385 33.60835487876648) rotate(0 87.11451454507409 -0.7453374417248142)"><path d="M-1.02 0.34 C28.03 0.22, 145.97 0.05, 175.25 -0.21 M0.64 -0.52 C29.48 -1.02, 145.66 -1.92, 174.52 -1.83" stroke="#f08c00" stroke-width="1" fill="none"></path></g><g stroke-opacity="0.7" fill-opacity="0.7" transform="translate(261.9231095885385 33.60835487876648) rotate(0 87.11451454507409 -0.7453374417248142)"><path d="M146.94 9.22 C158.64 4.57, 167.59 0.85, 173.64 -0.97 M146.68 7.85 C154.99 4.91, 165.22 1.73, 174.54 -2.6" stroke="#f08c00" stroke-width="1" fill="none"></path></g><g stroke-opacity="0.7" fill-opacity="0.7" transform="translate(261.9231095885385 33.60835487876648) rotate(0 87.11451454507409 -0.7453374417248142)"><path d="M146.87 -11.3 C158.69 -8.15, 167.67 -4.08, 173.64 -0.97 M146.61 -12.67 C155 -8.79, 165.24 -5.16, 174.54 -2.6" stroke="#f08c00" stroke-width="1" fill="none"></path></g></g><mask></mask><g stroke-opacity="0.7" fill-opacity="0.7" transform="translate(443.8522635520129 10) rotate(0 11.591995239257812 22.5)"><text x="0" y="0" font-family="Virgil, Segoe UI Emoji" font-size="36px" fill="#1971c2" text-anchor="start" style="white-space: pre;" direction="ltr" dominant-baseline="text-before-edge">C</text></g><g stroke-opacity="0.7" fill-opacity="0.7" transform="translate(234.59393328321642 196.31674367223047) rotate(0 11.591995239257812 22.5)"><text x="0" y="0" font-family="Virgil, Segoe UI Emoji" font-size="36px" fill="#1971c2" text-anchor="start" style="white-space: pre;" direction="ltr" dominant-baseline="text-before-edge">C</text></g><g stroke-linecap="round"><g stroke-opacity="0.7" fill-opacity="0.7" transform="translate(42.43755241510382 35.34183782429977) rotate(0 91.96634509163229 89.73709448951001)"><path d="M-0.78 -0.4 C6.46 21.08, 12.88 98.57, 43.41 128.83 C73.94 159.09, 159 172.79, 182.39 181.13 M1.01 -1.66 C8.6 20.05, 14.88 100.24, 45.5 130.42 C76.12 160.59, 161.61 171.23, 184.71 179.38" stroke="#846358" stroke-width="1" fill="none"></path></g><g stroke-opacity="0.7" fill-opacity="0.7" transform="translate(42.43755241510382 35.34183782429977) rotate(0 91.96634509163229 89.73709448951001)"><path d="M154.22 180.64 C163.91 180.04, 174.51 181.35, 182.82 179.97 M155.58 183.5 C163.68 180.66, 171.43 181.4, 185.46 179.26" stroke="#846358" stroke-width="1" fill="none"></path></g><g stroke-opacity="0.7" fill-opacity="0.7" transform="translate(42.43755241510382 35.34183782429977) rotate(0 91.96634509163229 89.73709448951001)"><path d="M159.12 160.71 C167.34 166, 176.48 173.23, 182.82 179.97 M160.48 163.58 C167.2 166.56, 173.52 173.11, 185.46 179.26" stroke="#846358" stroke-width="1" fill="none"></path></g></g><mask></mask><g stroke-opacity="0.7" fill-opacity="0.7" transform="translate(231.99449934086635 48.51959349293571) rotate(0 17.119979858398438 10)"><text x="0" y="0" font-family="Virgil, Segoe UI Emoji" font-size="16px" fill="#f08c00" text-anchor="start" style="white-space: pre;" direction="ltr" dominant-baseline="text-before-edge">1.2.9</text></g><g stroke-opacity="0.7" fill-opacity="0.7" transform="translate(231.09329569002 233.1449079835583) rotate(0 21.743972778320312 10)"><text x="0" y="0" font-family="Virgil, Segoe UI Emoji" font-size="16px" fill="#1971c2" text-anchor="start" style="white-space: pre;" direction="ltr" dominant-baseline="text-before-edge">6.8.8</text></g><g stroke-opacity="0.7" fill-opacity="0.7" transform="translate(436.2997199553006 48.656328622655565) rotate(0 19.92797088623047 10)"><text x="0" y="0" font-family="Virgil, Segoe UI Emoji" font-size="16px" fill="#1971c2" text-anchor="start" style="white-space: pre;" direction="ltr" dominant-baseline="text-before-edge">6.8.7</text></g><g stroke-linecap="round" transform="translate(523.6024732124281 69.47673940097513) rotate(0 117.9161253691235 117.9161253691235)"><path d="M170.3 9.99 C182.68 13.58, 192.74 23.8, 201.67 33.48 C210.61 43.16, 218.09 55.5, 223.89 68.08 C229.69 80.65, 234.94 95.13, 236.47 108.94 C237.99 122.74, 236.6 138.3, 233.04 150.89 C229.48 163.48, 223.36 173.97, 215.11 184.48 C206.85 194.99, 194.73 205.82, 183.51 213.95 C172.28 222.08, 160.81 229.61, 147.75 233.27 C134.69 236.94, 118.81 237.7, 105.15 235.95 C91.49 234.19, 77.4 228.87, 65.82 222.73 C54.24 216.59, 45.08 208.47, 35.68 199.11 C26.27 189.74, 15.09 178.46, 9.41 166.56 C3.72 154.65, 2.5 141.24, 1.55 127.66 C0.61 114.07, 0.65 97.94, 3.74 85.03 C6.82 72.12, 11.9 60.63, 20.07 50.2 C28.24 39.76, 41.12 29.85, 52.77 22.43 C64.42 15.01, 77.48 9.48, 89.99 5.65 C102.49 1.82, 112.26 -2.85, 127.79 -0.56 C143.32 1.74, 172.2 14.21, 183.18 19.42 C194.15 24.63, 195.07 29.43, 193.64 30.71 M36.7 28.83 C44.48 18.91, 57.99 15.44, 70.93 10.91 C83.86 6.39, 100.64 2.92, 114.3 1.67 C127.96 0.42, 140.65 -0.73, 152.89 3.42 C165.12 7.57, 177.11 18.31, 187.71 26.58 C198.31 34.84, 209.38 41.99, 216.49 53.01 C223.6 64.03, 226.87 78.95, 230.36 92.7 C233.84 106.45, 238.62 122.28, 237.39 135.52 C236.17 148.76, 229.72 160.41, 223 172.14 C216.28 183.87, 207.57 196.97, 197.08 205.93 C186.58 214.9, 172.96 220.82, 160.03 225.93 C147.1 231.04, 132.83 235.83, 119.5 236.59 C106.18 237.36, 92.03 234.64, 80.09 230.51 C68.15 226.39, 57.88 220.17, 47.85 211.85 C37.83 203.53, 27.72 191.97, 19.94 180.6 C12.16 169.24, 4.52 157.32, 1.17 143.68 C-2.19 130.04, -2.42 112.2, -0.19 98.79 C2.04 85.39, 8.42 75.1, 14.53 63.25 C20.65 51.4, 32.32 32.84, 36.5 27.71 C40.68 22.58, 38.06 30.93, 39.6 32.45" stroke="none" stroke-width="0" fill="#4c6ef5"></path><path d="M49.36 21.15 C58.37 12.59, 73.59 8.13, 86.81 4.58 C100.04 1.03, 115.35 -1.47, 128.71 -0.15 C142.08 1.17, 155.04 6.71, 167 12.51 C178.96 18.31, 190.82 25.31, 200.47 34.65 C210.12 43.99, 218.79 56.25, 224.9 68.53 C231.01 80.81, 235.78 95.07, 237.11 108.33 C238.44 121.58, 236.62 135.51, 232.86 148.07 C229.1 160.62, 222.57 172.85, 214.57 183.65 C206.56 194.45, 195.63 204.58, 184.82 212.86 C174.01 221.15, 162.52 229.76, 149.7 233.38 C136.87 237.01, 121.22 236.28, 107.89 234.61 C94.57 232.94, 82.03 228.57, 69.75 223.36 C57.48 218.16, 43.88 212.51, 34.24 203.39 C24.6 194.27, 17.28 180.81, 11.91 168.62 C6.55 156.44, 3.39 144.09, 2.03 130.3 C0.66 116.51, 0.48 99.28, 3.71 85.9 C6.95 72.51, 11.44 61.95, 21.42 50 C31.4 38.04, 53.15 21.36, 63.59 14.14 C74.03 6.91, 82.58 5.26, 84.05 6.65 M68.42 12.57 C79.25 5.43, 94.37 0.68, 107.67 -1.27 C120.97 -3.21, 135.04 -2.5, 148.21 0.89 C161.38 4.28, 175.22 10.45, 186.69 19.09 C198.16 27.72, 209.8 41.21, 217.04 52.68 C224.29 64.15, 227.26 75.9, 230.18 87.9 C233.1 99.9, 235.32 111.91, 234.55 124.66 C233.78 137.41, 231.36 151.66, 225.57 164.38 C219.78 177.1, 209.74 190.58, 199.83 200.98 C189.92 211.37, 177.89 221.04, 166.11 226.74 C154.33 232.44, 142.11 234.19, 129.16 235.2 C116.21 236.21, 101.35 235.77, 88.41 232.8 C75.48 229.83, 62.78 225.6, 51.56 217.39 C40.33 209.18, 29.36 195, 21.08 183.54 C12.8 172.08, 5.39 160.93, 1.88 148.64 C-1.62 136.34, -1.75 122.95, 0.05 109.77 C1.86 96.6, 7.2 82.05, 12.72 69.59 C18.23 57.13, 24.42 44.44, 33.16 35.02 C41.9 25.6, 59.69 17.13, 65.15 13.04 C70.61 8.96, 64.78 9.43, 65.91 10.5" stroke="#000000" stroke-width="1" fill="none"></path></g><g stroke-linecap="round" transform="translate(594.3521484339022 160.05118680677822) rotate(0 47.16645014765015 47.166450147650124)"><path d="M22.38 -0.61 L75.05 2.24 L83.9 2.53 L90.74 8.79 L94.85 24.27 L93.38 75.68 L92.55 84.41 L85.35 91.2 L71.35 96.07 L18.91 94.97 L9 90.98 L1.55 84.26 L-1.55 71.85 L1.61 23.67 L0.69 14.78 L1.83 8.79 L11.19 4.11 L24.31 1.56" stroke="none" stroke-width="0" fill="#ffffff"></path><path d="M23.58 0 M23.58 0 C42.5 -0.03, 59.41 2.11, 70.75 0 M23.58 0 C41.82 -0.89, 60.64 -1.03, 70.75 0 M70.75 0 C87.08 0.83, 94.78 6.68, 94.33 23.58 M70.75 0 C86.77 -2.27, 95.61 6.42, 94.33 23.58 M94.33 23.58 C95.54 41.71, 92.86 61.36, 94.33 70.75 M94.33 23.58 C93.29 34.09, 94.14 43.08, 94.33 70.75 M94.33 70.75 C94.6 87.02, 86.97 96.01, 70.75 94.33 M94.33 70.75 C93.86 84.53, 84.71 94.01, 70.75 94.33 M70.75 94.33 C57.75 94.02, 43.54 93.07, 23.58 94.33 M70.75 94.33 C53.7 93.03, 36.81 93.31, 23.58 94.33 M23.58 94.33 C8.75 93.69, -0.35 88.15, 0 70.75 M23.58 94.33 C6.17 93.99, -2 84.98, 0 70.75 M0 70.75 C1.25 60.21, 0.92 44.75, 0 23.58 M0 70.75 C0.87 58.78, 0.59 47.64, 0 23.58 M0 23.58 C-1.64 9.68, 6.36 -1.24, 23.58 0 M0 23.58 C-0.36 9.22, 8.35 -0.61, 23.58 0" stroke="#ffffff" stroke-width="1" fill="none"></path></g><g stroke-linecap="round"><g transform="translate(614.0238498338244 158.62790153189383) rotate(0 28.43600782613629 -19.253755757647525)"><path d="M-0.73 -0.47 C-0.58 -4.08, -1.65 -15.47, 0.17 -20.53 C1.99 -25.58, 7.13 -27.87, 10.18 -30.8 C13.24 -33.73, 13.77 -36.87, 18.52 -38.09 C23.26 -39.32, 33.75 -39.54, 38.65 -38.16 C43.55 -36.77, 44.86 -33.17, 47.91 -29.78 C50.96 -26.39, 55.43 -22.89, 56.96 -17.82 C58.49 -12.76, 57.19 -2.37, 57.11 0.6 M1.08 -1.77 C1.12 -4.68, -2.28 -13.93, -0.86 -19.12 C0.55 -24.32, 6.34 -29.92, 9.58 -32.92 C12.82 -35.93, 13.9 -36.33, 18.58 -37.18 C23.26 -38.02, 32.53 -39.06, 37.66 -37.99 C42.8 -36.92, 46.04 -33.99, 49.4 -30.76 C52.75 -27.53, 56.63 -23.84, 57.79 -18.62 C58.95 -13.4, 56.25 -2.29, 56.35 0.58" stroke="#fff" stroke-width="4" fill="none"></path></g></g><mask></mask><g stroke-linecap="round" transform="translate(633.070277745051 185.35468388834335) rotate(0 8.296265818623908 8.29626581862388)"><path d="M16.59 8.3 C16.59 8.78, 16.55 9.26, 16.47 9.74 C16.38 10.21, 16.26 10.68, 16.09 11.13 C15.93 11.59, 15.72 12.03, 15.48 12.44 C15.24 12.86, 14.96 13.26, 14.65 13.63 C14.34 14, 14 14.34, 13.63 14.65 C13.26 14.96, 12.86 15.24, 12.44 15.48 C12.03 15.72, 11.59 15.93, 11.13 16.09 C10.68 16.26, 10.21 16.38, 9.74 16.47 C9.26 16.55, 8.78 16.59, 8.3 16.59 C7.82 16.59, 7.33 16.55, 6.86 16.47 C6.38 16.38, 5.91 16.26, 5.46 16.09 C5.01 15.93, 4.56 15.72, 4.15 15.48 C3.73 15.24, 3.33 14.96, 2.96 14.65 C2.6 14.34, 2.25 14, 1.94 13.63 C1.63 13.26, 1.35 12.86, 1.11 12.44 C0.87 12.03, 0.66 11.59, 0.5 11.13 C0.34 10.68, 0.21 10.21, 0.13 9.74 C0.04 9.26, 0 8.78, 0 8.3 C0 7.82, 0.04 7.33, 0.13 6.86 C0.21 6.38, 0.34 5.91, 0.5 5.46 C0.66 5.01, 0.87 4.56, 1.11 4.15 C1.35 3.73, 1.63 3.33, 1.94 2.96 C2.25 2.6, 2.6 2.25, 2.96 1.94 C3.33 1.63, 3.73 1.35, 4.15 1.11 C4.56 0.87, 5.01 0.66, 5.46 0.5 C5.91 0.34, 6.38 0.21, 6.86 0.13 C7.33 0.04, 7.82 0, 8.3 0 C8.78 0, 9.26 0.04, 9.74 0.13 C10.21 0.21, 10.68 0.34, 11.13 0.5 C11.59 0.66, 12.03 0.87, 12.44 1.11 C12.86 1.35, 13.26 1.63, 13.63 1.94 C14 2.25, 14.34 2.6, 14.65 2.96 C14.96 3.33, 15.24 3.73, 15.48 4.15 C15.72 4.56, 15.93 5.01, 16.09 5.46 C16.26 5.91, 16.38 6.38, 16.47 6.86 C16.55 7.33, 16.57 8.06, 16.59 8.3 C16.61 8.54, 16.61 8.06, 16.59 8.3" stroke="none" stroke-width="0" fill="#868e96"></path><path d="M16.59 8.3 C16.59 8.78, 16.55 9.26, 16.47 9.74 C16.38 10.21, 16.26 10.68, 16.09 11.13 C15.93 11.59, 15.72 12.03, 15.48 12.44 C15.24 12.86, 14.96 13.26, 14.65 13.63 C14.34 14, 14 14.34, 13.63 14.65 C13.26 14.96, 12.86 15.24, 12.44 15.48 C12.03 15.72, 11.59 15.93, 11.13 16.09 C10.68 16.26, 10.21 16.38, 9.74 16.47 C9.26 16.55, 8.78 16.59, 8.3 16.59 C7.82 16.59, 7.33 16.55, 6.86 16.47 C6.38 16.38, 5.91 16.26, 5.46 16.09 C5.01 15.93, 4.56 15.72, 4.15 15.48 C3.73 15.24, 3.33 14.96, 2.96 14.65 C2.6 14.34, 2.25 14, 1.94 13.63 C1.63 13.26, 1.35 12.86, 1.11 12.44 C0.87 12.03, 0.66 11.59, 0.5 11.13 C0.34 10.68, 0.21 10.21, 0.13 9.74 C0.04 9.26, 0 8.78, 0 8.3 C0 7.82, 0.04 7.33, 0.13 6.86 C0.21 6.38, 0.34 5.91, 0.5 5.46 C0.66 5.01, 0.87 4.56, 1.11 4.15 C1.35 3.73, 1.63 3.33, 1.94 2.96 C2.25 2.6, 2.6 2.25, 2.96 1.94 C3.33 1.63, 3.73 1.35, 4.15 1.11 C4.56 0.87, 5.01 0.66, 5.46 0.5 C5.91 0.34, 6.38 0.21, 6.86 0.13 C7.33 0.04, 7.82 0, 8.3 0 C8.78 0, 9.26 0.04, 9.74 0.13 C10.21 0.21, 10.68 0.34, 11.13 0.5 C11.59 0.66, 12.03 0.87, 12.44 1.11 C12.86 1.35, 13.26 1.63, 13.63 1.94 C14 2.25, 14.34 2.6, 14.65 2.96 C14.96 3.33, 15.24 3.73, 15.48 4.15 C15.72 4.56, 15.93 5.01, 16.09 5.46 C16.26 5.91, 16.38 6.38, 16.47 6.86 C16.55 7.33, 16.57 8.06, 16.59 8.3 C16.61 8.54, 16.61 8.06, 16.59 8.3" stroke="#868e96" stroke-width="2" fill="none"></path></g><g stroke-linecap="round"><g transform="translate(638.7250816259501 203.1638699077222) rotate(0 4.042073659225537 11.878742498664906)" fill-rule="evenodd"><path d="M0 0 L-4.3 18.01 L-3.99 22.61 L-0.94 24.73 L3.99 25.43 L8.92 24.73 L11.98 22.61 L12.48 18.01 L9.73 4.59 L7.99 0 L6.08 -1.59 L0 0" stroke="none" stroke-width="0" fill="#868e96" fill-rule="evenodd"></path><path d="M0 0 C-0.67 3.77, -5.99 18.84, -3.99 22.61 C-2 26.37, 9.98 26.37, 11.98 22.61 C13.97 18.84, 9.98 3.77, 7.99 0 C5.99 -3.77, 1.33 0, 0 0 M0 0 C-0.67 3.77, -5.99 18.84, -3.99 22.61 C-2 26.37, 9.98 26.37, 11.98 22.61 C13.97 18.84, 9.98 3.77, 7.99 0 C5.99 -3.77, 1.33 0, 0 0" stroke="#868e96" stroke-width="2" fill="none"></path></g></g><mask></mask><g stroke-opacity="0.7" fill-opacity="0.7" transform="translate(442.397003442475 178.07062043873458) rotate(0 14.039993286132812 22.5)"><text x="0" y="0" font-family="Virgil, Segoe UI Emoji" font-size="36px" fill="#1971c2" text-anchor="start" style="white-space: pre;" direction="ltr" dominant-baseline="text-before-edge">D</text></g><g stroke-opacity="0.7" fill-opacity="0.7" transform="translate(447.4653710073352 354.4498116958613) rotate(0 12.131996154785156 22.5)"><text x="0" y="0" font-family="Virgil, Segoe UI Emoji" font-size="36px" fill="#1971c2" text-anchor="start" style="white-space: pre;" direction="ltr" dominant-baseline="text-before-edge">E</text></g><g stroke-linecap="round"><g stroke-opacity="0.7" fill-opacity="0.7" transform="translate(269.50041932083025 31.28714377241181) rotate(0 79.75474723238852 84.32671384132777)"><path d="M0.71 -1.05 C10.3 19.37, 31.39 93.34, 57.92 121.8 C84.44 150.26, 142.78 161.75, 159.88 169.71 M-0.37 1.01 C9.55 21.63, 33.61 95.07, 60.17 122.89 C86.72 150.7, 142.17 160.46, 158.97 167.89" stroke="#f08c00" stroke-width="1" fill="none"></path></g><g stroke-opacity="0.7" fill-opacity="0.7" transform="translate(269.50041932083025 31.28714377241181) rotate(0 79.75474723238852 84.32671384132777)"><path d="M127.22 167.44 C137.58 167.92, 150.69 168.62, 160.42 168.95 M128.86 169.86 C140.36 167.82, 150.88 167.12, 158.5 168.06" stroke="#f08c00" stroke-width="1" fill="none"></path></g><g stroke-opacity="0.7" fill-opacity="0.7" transform="translate(269.50041932083025 31.28714377241181) rotate(0 79.75474723238852 84.32671384132777)"><path d="M133.59 147.93 C141.69 154.96, 152.68 162.18, 160.42 168.95 M135.23 150.35 C144.29 155.51, 152.47 161.94, 158.5 168.06" stroke="#f08c00" stroke-width="1" fill="none"></path></g></g><mask></mask><g stroke-linecap="round"><g stroke-opacity="0.7" fill-opacity="0.7" transform="translate(273.5551133727182 31.28714377241181) rotate(0 80.32918109599856 167.89636012473883)"><path d="M0.69 -0.84 C8.56 35.33, 19.89 160.33, 46.62 216.58 C73.35 272.82, 142.04 316.63, 161.07 336.63 M-0.41 1.34 C7.35 37.72, 18.81 162.37, 45.67 217.93 C72.54 273.49, 141.5 315.3, 160.78 334.71" stroke="#f08c00" stroke-width="1" fill="none"></path></g><g stroke-opacity="0.7" fill-opacity="0.7" transform="translate(273.5551133727182 31.28714377241181) rotate(0 80.32918109599856 167.89636012473883)"><path d="M131.1 324.71 C138.99 328.58, 148.04 330.64, 161.98 333.48 M132.59 323.82 C141.37 327.72, 151.05 332.32, 161.37 334.14" stroke="#f08c00" stroke-width="1" fill="none"></path></g><g stroke-opacity="0.7" fill-opacity="0.7" transform="translate(273.5551133727182 31.28714377241181) rotate(0 80.32918109599856 167.89636012473883)"><path d="M144.14 308.86 C148.69 316.8, 154.46 322.84, 161.98 333.48 M145.63 307.98 C150.28 316.94, 155.73 326.67, 161.37 334.14" stroke="#f08c00" stroke-width="1" fill="none"></path></g></g><mask></mask><g stroke-opacity="0.7" fill-opacity="0.7" transform="translate(443.1840894122504 217.93980528897833) rotate(0 19.895973205566406 10)"><text x="0" y="0" font-family="Virgil, Segoe UI Emoji" font-size="16px" fill="#1971c2" text-anchor="start" style="white-space: pre;" direction="ltr" dominant-baseline="text-before-edge">4.5.3</text></g><g stroke-opacity="0.7" fill-opacity="0.7" transform="translate(439.1293953603624 395.3326700590772) rotate(0 19.25597381591797 10)"><text x="0" y="0" font-family="Virgil, Segoe UI Emoji" font-size="16px" fill="#1971c2" text-anchor="start" style="white-space: pre;" direction="ltr" dominant-baseline="text-before-edge">7.2.9</text></g></svg>